<svg width="1000" height="1000" viewBox="0 0 1000 1000" fill="none" xmlns="http://www.w3.org/2000/svg">
<rect width="1000" height="1000" fill="black"/>
<path d="M480.25 580.939C479.145 580.939 478.11 580.525 477.143 579.697C476.314 578.868 475.9 577.832 475.9 576.589C475.9 576.037 476.038 575.416 476.314 574.725L526.236 441.117C526.651 439.736 527.41 438.562 528.515 437.595C529.758 436.49 531.415 435.938 533.486 435.938H556.065C558.137 435.938 559.725 436.49 560.829 437.595C561.934 438.562 562.763 439.736 563.315 441.117L613.237 574.725C613.375 575.416 613.444 576.037 613.444 576.589C613.444 577.832 613.03 578.868 612.201 579.697C611.373 580.525 610.406 580.939 609.301 580.939H591.28C589.346 580.939 587.896 580.525 586.93 579.697C586.101 578.73 585.549 577.832 585.272 577.004L575.537 551.732H514.015L504.279 577.004C504.003 577.832 503.381 578.73 502.415 579.697C501.586 580.525 500.205 580.939 498.272 580.939H480.25ZM521.265 527.91H568.287L544.672 463.903L521.265 527.91ZM635.476 580.939C634.095 580.939 632.921 580.456 631.954 579.489C630.988 578.523 630.504 577.349 630.504 575.968V438.838C630.504 437.457 630.988 436.283 631.954 435.317C632.921 434.35 634.095 433.867 635.476 433.867H652.669C654.05 433.867 655.224 434.35 656.19 435.317C657.157 436.283 657.64 437.457 657.64 438.838V575.968C657.64 577.349 657.157 578.523 656.19 579.489C655.224 580.456 654.05 580.939 652.669 580.939H635.476ZM731.518 583.011C716.19 583.011 704.037 578.592 695.061 569.754C686.085 560.915 681.251 548.349 680.561 532.053C680.423 530.672 680.354 528.946 680.354 526.875C680.354 524.665 680.423 522.939 680.561 521.696C681.113 511.339 683.461 502.363 687.604 494.767C691.885 487.172 697.754 481.372 705.211 477.367C712.668 473.224 721.437 471.153 731.518 471.153C742.704 471.153 752.095 473.5 759.69 478.196C767.285 482.753 773.016 489.174 776.883 497.46C780.75 505.608 782.683 515.067 782.683 525.839V530.189C782.683 531.57 782.2 532.744 781.233 533.71C780.266 534.677 779.024 535.16 777.504 535.16H708.732C708.732 535.16 708.732 535.368 708.732 535.782C708.732 536.196 708.732 536.541 708.732 536.818C708.87 541.651 709.768 546.139 711.425 550.282C713.221 554.287 715.775 557.532 719.09 560.018C722.542 562.504 726.616 563.746 731.311 563.746C735.178 563.746 738.423 563.194 741.047 562.089C743.671 560.846 745.811 559.465 747.468 557.946C749.126 556.427 750.299 555.184 750.99 554.218C752.233 552.561 753.199 551.594 753.89 551.318C754.719 550.903 755.892 550.696 757.411 550.696H775.226C776.607 550.696 777.712 551.111 778.54 551.939C779.507 552.768 779.921 553.803 779.783 555.046C779.645 557.256 778.471 559.949 776.262 563.125C774.19 566.301 771.152 569.408 767.147 572.447C763.142 575.485 758.102 578.039 752.026 580.111C746.087 582.044 739.252 583.011 731.518 583.011ZM708.732 517.76H754.511V517.139C754.511 511.753 753.614 507.058 751.819 503.053C750.023 499.048 747.399 495.872 743.947 493.524C740.495 491.177 736.352 490.003 731.518 490.003C726.685 490.003 722.542 491.177 719.09 493.524C715.637 495.872 713.013 499.048 711.218 503.053C709.561 507.058 708.732 511.753 708.732 517.139V517.76ZM797.282 580.939C796.039 580.939 794.934 580.525 793.968 579.697C793.139 578.73 792.725 577.625 792.725 576.382C792.725 575.968 792.794 575.485 792.932 574.932C793.208 574.38 793.622 573.689 794.175 572.861L829.389 525.632L796.661 481.303C796.246 480.612 795.901 479.991 795.625 479.439C795.487 478.886 795.418 478.334 795.418 477.781C795.418 476.538 795.832 475.503 796.661 474.674C797.627 473.707 798.732 473.224 799.975 473.224H817.996C819.654 473.224 820.896 473.638 821.725 474.467C822.554 475.296 823.175 476.055 823.589 476.746L846.997 507.817L870.404 476.746C870.956 476.055 871.578 475.296 872.268 474.467C873.097 473.638 874.34 473.224 875.997 473.224H893.19C894.433 473.224 895.469 473.707 896.297 474.674C897.264 475.503 897.747 476.469 897.747 477.574C897.747 478.265 897.609 478.886 897.333 479.439C897.195 479.991 896.919 480.612 896.504 481.303L863.361 526.046L898.783 572.861C899.335 573.689 899.681 574.38 899.819 574.932C900.095 575.485 900.233 575.968 900.233 576.382C900.233 577.625 899.75 578.73 898.783 579.697C897.954 580.525 896.919 580.939 895.676 580.939H876.826C875.306 580.939 874.133 580.594 873.304 579.904C872.476 579.075 871.785 578.316 871.233 577.625L846.375 544.689L821.104 577.625C820.551 578.316 819.861 579.075 819.032 579.904C818.342 580.594 817.168 580.939 815.511 580.939H797.282Z" fill="white"/>
<path d="M483.509 646.677C483.167 646.677 482.888 646.569 482.67 646.351C482.453 646.134 482.344 645.854 482.344 645.513V621.386H474.054C473.712 621.386 473.433 621.278 473.216 621.06C472.998 620.812 472.889 620.533 472.889 620.222V615.238C472.889 614.897 472.998 614.617 473.216 614.4C473.433 614.183 473.712 614.074 474.054 614.074H499.112C499.453 614.074 499.733 614.183 499.95 614.4C500.168 614.617 500.276 614.897 500.276 615.238V620.222C500.276 620.533 500.168 620.812 499.95 621.06C499.733 621.278 499.453 621.386 499.112 621.386H490.821V645.513C490.821 645.854 490.713 646.134 490.495 646.351C490.278 646.569 489.998 646.677 489.657 646.677H483.509ZM510.331 646.677C509.99 646.677 509.71 646.569 509.493 646.351C509.275 646.134 509.167 645.854 509.167 645.513V615.238C509.167 614.897 509.275 614.617 509.493 614.4C509.71 614.183 509.99 614.074 510.331 614.074H516.339C516.681 614.074 516.961 614.183 517.178 614.4C517.395 614.617 517.504 614.897 517.504 615.238V626.463H529.008V615.238C529.008 614.897 529.117 614.617 529.334 614.4C529.552 614.183 529.831 614.074 530.173 614.074H536.181C536.522 614.074 536.802 614.183 537.019 614.4C537.237 614.617 537.345 614.897 537.345 615.238V645.513C537.345 645.854 537.237 646.134 537.019 646.351C536.802 646.569 536.522 646.677 536.181 646.677H530.173C529.831 646.677 529.552 646.569 529.334 646.351C529.117 646.134 529.008 645.854 529.008 645.513V633.915H517.504V645.513C517.504 645.854 517.395 646.134 517.178 646.351C516.961 646.569 516.681 646.677 516.339 646.677H510.331ZM549.693 646.677C549.352 646.677 549.072 646.569 548.855 646.351C548.638 646.134 548.529 645.854 548.529 645.513V615.238C548.529 614.897 548.638 614.617 548.855 614.4C549.072 614.183 549.352 614.074 549.693 614.074H571.444C571.786 614.074 572.065 614.183 572.283 614.4C572.5 614.617 572.609 614.897 572.609 615.238V619.617C572.609 619.958 572.5 620.238 572.283 620.455C572.065 620.672 571.786 620.781 571.444 620.781H556.587V627.069H570.42C570.761 627.069 571.041 627.193 571.258 627.441C571.476 627.659 571.584 627.938 571.584 628.28V632.332C571.584 632.642 571.476 632.922 571.258 633.17C571.041 633.388 570.761 633.496 570.42 633.496H556.587V639.97H571.817C572.159 639.97 572.438 640.079 572.655 640.296C572.873 640.514 572.981 640.793 572.981 641.135V645.513C572.981 645.854 572.873 646.134 572.655 646.351C572.438 646.569 572.159 646.677 571.817 646.677H549.693ZM598.671 646.677C598.33 646.677 598.05 646.569 597.833 646.351C597.615 646.134 597.507 645.854 597.507 645.513V615.238C597.507 614.897 597.615 614.617 597.833 614.4C598.05 614.183 598.33 614.074 598.671 614.074H604.819C605.13 614.074 605.394 614.183 605.611 614.4C605.859 614.617 605.984 614.897 605.984 615.238V639.644H620.05C620.391 639.644 620.671 639.768 620.888 640.017C621.136 640.234 621.26 640.514 621.26 640.855V645.513C621.26 645.854 621.136 646.134 620.888 646.351C620.671 646.569 620.391 646.677 620.05 646.677H598.671ZM642.912 647.143C640.056 647.143 637.571 646.677 635.46 645.746C633.349 644.814 631.703 643.417 630.523 641.554C629.343 639.66 628.691 637.3 628.567 634.474C628.536 633.139 628.52 631.804 628.52 630.469C628.52 629.134 628.536 627.783 628.567 626.417C628.691 623.622 629.343 621.278 630.523 619.384C631.734 617.459 633.395 616.015 635.507 615.052C637.618 614.09 640.087 613.608 642.912 613.608C645.707 613.608 648.16 614.09 650.271 615.052C652.414 616.015 654.09 617.459 655.301 619.384C656.512 621.278 657.164 623.622 657.258 626.417C657.32 627.783 657.351 629.134 657.351 630.469C657.351 631.804 657.32 633.139 657.258 634.474C657.133 637.3 656.481 639.66 655.301 641.554C654.121 643.417 652.476 644.814 650.364 645.746C648.253 646.677 645.769 647.143 642.912 647.143ZM642.912 640.436C644.558 640.436 645.893 639.939 646.918 638.946C647.973 637.952 648.532 636.368 648.594 634.195C648.657 632.829 648.688 631.54 648.688 630.329C648.688 629.118 648.657 627.861 648.594 626.556C648.532 625.097 648.253 623.917 647.756 623.017C647.29 622.085 646.638 621.402 645.8 620.967C644.962 620.533 643.999 620.315 642.912 620.315C641.856 620.315 640.909 620.533 640.071 620.967C639.233 621.402 638.565 622.085 638.068 623.017C637.571 623.917 637.292 625.097 637.23 626.556C637.199 627.861 637.183 629.118 637.183 630.329C637.183 631.54 637.199 632.829 637.23 634.195C637.323 636.368 637.882 637.952 638.907 638.946C639.931 639.939 641.266 640.436 642.912 640.436ZM680.775 647.143C677.825 647.143 675.294 646.662 673.183 645.699C671.102 644.737 669.472 643.324 668.292 641.461C667.143 639.598 666.507 637.284 666.383 634.521C666.351 633.248 666.336 631.882 666.336 630.422C666.336 628.963 666.351 627.566 666.383 626.23C666.507 623.529 667.159 621.247 668.339 619.384C669.519 617.49 671.164 616.061 673.276 615.099C675.387 614.105 677.887 613.608 680.775 613.608C682.824 613.608 684.718 613.872 686.457 614.4C688.196 614.897 689.717 615.642 691.021 616.636C692.325 617.598 693.335 618.778 694.049 620.175C694.794 621.542 695.182 623.094 695.213 624.833C695.244 625.113 695.151 625.345 694.934 625.532C694.747 625.718 694.514 625.811 694.235 625.811H687.947C687.544 625.811 687.233 625.734 687.016 625.578C686.798 625.392 686.612 625.066 686.457 624.6C686.022 622.954 685.308 621.837 684.314 621.247C683.352 620.626 682.156 620.315 680.728 620.315C679.02 620.315 677.669 620.796 676.676 621.759C675.682 622.691 675.139 624.259 675.046 626.463C674.953 629.009 674.953 631.618 675.046 634.288C675.139 636.493 675.682 638.076 676.676 639.039C677.669 639.97 679.02 640.436 680.728 640.436C682.156 640.436 683.367 640.126 684.361 639.505C685.354 638.884 686.053 637.766 686.457 636.151C686.581 635.685 686.752 635.375 686.969 635.22C687.218 635.033 687.544 634.94 687.947 634.94H694.235C694.514 634.94 694.747 635.033 694.934 635.22C695.151 635.406 695.244 635.639 695.213 635.918C695.182 637.657 694.794 639.225 694.049 640.622C693.335 641.989 692.325 643.169 691.021 644.162C689.717 645.125 688.196 645.87 686.457 646.398C684.718 646.895 682.824 647.143 680.775 647.143ZM705.933 646.677C705.591 646.677 705.311 646.569 705.094 646.351C704.877 646.134 704.768 645.854 704.768 645.513V615.238C704.768 614.897 704.877 614.617 705.094 614.4C705.311 614.183 705.591 614.074 705.933 614.074H711.801C712.143 614.074 712.422 614.183 712.639 614.4C712.857 614.617 712.965 614.897 712.965 615.238V625.578L721.582 614.959C721.706 614.773 721.908 614.586 722.188 614.4C722.498 614.183 722.902 614.074 723.399 614.074H730.105C730.385 614.074 730.618 614.183 730.804 614.4C730.99 614.586 731.084 614.804 731.084 615.052C731.084 615.269 731.021 615.456 730.897 615.611L719.766 629.677L731.782 645.14C731.906 645.264 731.969 645.451 731.969 645.699C731.969 645.948 731.86 646.18 731.643 646.398C731.456 646.584 731.239 646.677 730.99 646.677H724.051C723.492 646.677 723.057 646.553 722.746 646.305C722.467 646.056 722.281 645.87 722.188 645.746L712.965 634.241V645.513C712.965 645.854 712.857 646.134 712.639 646.351C712.422 646.569 712.143 646.677 711.801 646.677H705.933ZM751.511 647.143C748.406 647.143 745.829 646.708 743.779 645.839C741.73 644.938 740.177 643.774 739.122 642.346C738.066 640.917 737.507 639.396 737.445 637.781C737.445 637.533 737.538 637.315 737.724 637.129C737.942 636.912 738.19 636.803 738.47 636.803H744.338C744.773 636.803 745.099 636.881 745.316 637.036C745.565 637.191 745.782 637.393 745.968 637.641C746.217 638.107 746.558 638.557 746.993 638.992C747.459 639.427 748.049 639.784 748.763 640.063C749.508 640.312 750.424 640.436 751.511 640.436C753.312 640.436 754.662 640.157 755.563 639.598C756.494 639.039 756.96 638.278 756.96 637.315C756.96 636.632 756.712 636.073 756.215 635.639C755.718 635.173 754.911 634.769 753.793 634.428C752.706 634.055 751.247 633.683 749.415 633.31C747.055 632.813 745.037 632.177 743.36 631.4C741.714 630.593 740.457 629.553 739.587 628.28C738.718 626.976 738.283 625.361 738.283 623.436C738.283 621.542 738.811 619.849 739.867 618.359C740.954 616.869 742.46 615.704 744.385 614.866C746.31 614.027 748.592 613.608 751.231 613.608C753.374 613.608 755.252 613.888 756.867 614.447C758.513 615.006 759.895 615.751 761.012 616.682C762.13 617.614 762.969 618.607 763.527 619.663C764.117 620.688 764.428 621.697 764.459 622.691C764.459 622.939 764.366 623.172 764.18 623.389C763.993 623.576 763.76 623.669 763.481 623.669H757.333C756.991 623.669 756.696 623.607 756.448 623.482C756.199 623.358 755.982 623.156 755.796 622.877C755.61 622.194 755.113 621.604 754.305 621.107C753.529 620.579 752.504 620.315 751.231 620.315C749.865 620.315 748.794 620.564 748.018 621.06C747.272 621.526 746.9 622.256 746.9 623.249C746.9 623.87 747.102 624.414 747.505 624.88C747.94 625.345 748.639 625.749 749.601 626.091C750.595 626.432 751.946 626.789 753.653 627.162C756.479 627.69 758.761 628.357 760.5 629.165C762.239 629.941 763.512 630.966 764.319 632.239C765.127 633.481 765.53 635.049 765.53 636.943C765.53 639.054 764.925 640.886 763.714 642.439C762.534 643.96 760.888 645.125 758.777 645.932C756.665 646.739 754.243 647.143 751.511 647.143ZM776.015 646.677C775.704 646.677 775.425 646.569 775.177 646.351C774.959 646.134 774.851 645.854 774.851 645.513V615.238C774.851 614.897 774.959 614.617 775.177 614.4C775.425 614.183 775.704 614.074 776.015 614.074H781.045C781.542 614.074 781.915 614.214 782.163 614.493C782.442 614.742 782.613 614.943 782.675 615.099L790.873 629.817L799.07 615.099C799.163 614.943 799.319 614.742 799.536 614.493C799.784 614.214 800.172 614.074 800.7 614.074H805.684C806.025 614.074 806.305 614.183 806.522 614.4C806.771 614.617 806.895 614.897 806.895 615.238V645.513C806.895 645.854 806.771 646.134 806.522 646.351C806.305 646.569 806.025 646.677 805.684 646.677H800.141C799.8 646.677 799.505 646.569 799.256 646.351C799.039 646.134 798.93 645.854 798.93 645.513V628.047L793.667 637.781C793.543 638.061 793.357 638.309 793.108 638.526C792.86 638.744 792.518 638.852 792.084 638.852H789.662C789.227 638.852 788.885 638.744 788.637 638.526C788.389 638.309 788.187 638.061 788.032 637.781L782.768 628.047V645.513C782.768 645.854 782.66 646.134 782.442 646.351C782.225 646.569 781.946 646.677 781.604 646.677H776.015ZM819.198 646.677C818.856 646.677 818.577 646.569 818.36 646.351C818.142 646.134 818.033 645.854 818.033 645.513V615.238C818.033 614.897 818.142 614.617 818.36 614.4C818.577 614.183 818.856 614.074 819.198 614.074H825.439C825.781 614.074 826.06 614.183 826.277 614.4C826.495 614.617 826.603 614.897 826.603 615.238V645.513C826.603 645.854 826.495 646.134 826.277 646.351C826.06 646.569 825.781 646.677 825.439 646.677H819.198ZM846.129 646.677C845.788 646.677 845.508 646.569 845.291 646.351C845.073 646.134 844.965 645.854 844.965 645.513V621.386H836.674C836.333 621.386 836.053 621.278 835.836 621.06C835.618 620.812 835.51 620.533 835.51 620.222V615.238C835.51 614.897 835.618 614.617 835.836 614.4C836.053 614.183 836.333 614.074 836.674 614.074H861.732C862.074 614.074 862.353 614.183 862.57 614.4C862.788 614.617 862.896 614.897 862.896 615.238V620.222C862.896 620.533 862.788 620.812 862.57 621.06C862.353 621.278 862.074 621.386 861.732 621.386H853.442V645.513C853.442 645.854 853.333 646.134 853.115 646.351C852.898 646.569 852.619 646.677 852.277 646.677H846.129ZM872.951 646.677C872.61 646.677 872.33 646.569 872.113 646.351C871.896 646.134 871.787 645.854 871.787 645.513V615.238C871.787 614.897 871.896 614.617 872.113 614.4C872.33 614.183 872.61 614.074 872.951 614.074H878.96C879.301 614.074 879.581 614.183 879.798 614.4C880.015 614.617 880.124 614.897 880.124 615.238V626.463H891.628V615.238C891.628 614.897 891.737 614.617 891.954 614.4C892.172 614.183 892.451 614.074 892.793 614.074H898.801C899.143 614.074 899.422 614.183 899.639 614.4C899.857 614.617 899.966 614.897 899.966 615.238V645.513C899.966 645.854 899.857 646.134 899.639 646.351C899.422 646.569 899.143 646.677 898.801 646.677H892.793C892.451 646.677 892.172 646.569 891.954 646.351C891.737 646.134 891.628 645.854 891.628 645.513V633.915H880.124V645.513C880.124 645.854 880.015 646.134 879.798 646.351C879.581 646.569 879.301 646.677 878.96 646.677H872.951Z" fill="white"/>
<circle cx="267" cy="552" r="40" stroke="white" stroke-width="24"/>
<path d="M416.719 511.883C394.563 429.196 309.57 380.126 226.883 402.281C144.196 424.437 95.1255 509.43 117.282 592.117C139.437 674.804 224.43 723.874 307.117 701.718" stroke="white" stroke-width="24" stroke-linecap="round"/>
<path d="M294 584.5L349.344 643.281M388 656.5L375.957 668.543C375.16 669.34 373.86 669.321 373.087 668.499L349.344 643.281M349.344 643.281L363.625 629" stroke="white" stroke-width="24" stroke-linecap="round"/>
<path d="M361.144 505.5C366.306 515.941 369.751 527.258 371.22 539C372.465 548.952 372.29 559.209 370.538 569.5" stroke="white" stroke-width="24" stroke-linecap="round"/>
<path d="M267 707C181.396 707 112 637.604 112 552C112 466.396 181.396 397 267 397C352.604 397 422 466.396 422 552C422 557.917 421.668 563.756 421.023 569.5" stroke="white" stroke-width="24" stroke-linecap="round"/>
<path d="M267 657C209.01 657 162 609.99 162 552C162 494.01 209.01 447 267 447" stroke="white" stroke-width="24" stroke-linecap="round"/>
<circle cx="326" cy="465" r="12" fill="white"/>
<path d="M326 358.382V351C326 318.415 299.585 292 267 292V292C234.415 292 208 318.415 208 351V404" stroke="white" stroke-width="24" stroke-linecap="round"/>
</svg>
